#!OML:ASF F:\VICON\USERDATA\INSTALL\rory3\rory3.ASF
:FULLY-SPECIFIED
:DEGREES
88
root 0.37845499976995417 17.89731835969806 19.87739859623435 -2.6293608959800006 -2.4536242624676543 -6.262717940548955
lfemur -16.57597873305318 -4.071181944272628 -12.392288527829812
ltibia 30.648725211752822
lfoot -6.859398220303163 -2.3856091179735706
ltoes -17.972459175434828
rfemur -2.9988617634926946 4.672202044956341 33.60442244570933
rtibia 27.92000567004153
rfoot -4.992198568965275 -7.679289289916894
rtoes 8.01189199170039
lowerback 10.820600107025829 1.4301875224410106 4.583293135329294
upperback -0.19331610804069563 2.9418571702202936 2.1575133016223655
thorax -6.05945921944708 1.3434994890912118 -1.8650003718809638
lowerneck -16.5051417379745 -3.4743498758571634 -1.8083118662914361
upperneck 20.301935741153738 -4.736032237545396 1.521554868292283
head 9.064184545314983 -2.1118718861637547 0.3585728503036857
lclavicle 2.990843353182792e-16 5.534597869478271e-17
lhumerus -33.62874900503688 4.2158752626880345 79.72084665616619
lradius 33.65863545773789
lwrist 11.517460953809245
lhand -29.69551959396397 17.298095871592153
lfingers 7.125020000000001
lthumb -2.7713960456762035 47.51163260204553
rclavicle 3.042102208178638e-16 5.849593803583734e-17
rhumerus -31.263979002162383 -18.159516345233442 -78.002962001646
rradius 26.898713023979163
rwrist 3.466881900515608
rhand -17.470044888267285 21.171549794071282
rfingers 7.125020000000001
rthumb 8.70247172814736 -8.568982456012673
89
root 0.46279506586615377 17.681058146971207 22.123671114764313 -2.5831041943458133 -2.795282571730735 -7.020079447776265
lfemur -17.603154189570617 -3.119428605297643 -11.849692118011895
ltibia 29.838335018885548
lfoot -6.79579752231832 -2.8479957506166387
ltoes -18.860412280898707
rfemur -1.5403744575069513 4.488926319529036 34.42462682032038
rtibia 28.22963941844244
rfoot -4.244153693136452 -7.97868592494828
rtoes 6.5898124666229005
lowerback 11.213879037736682 1.6473298947263717 5.253781435708411
upperback -0.18073883004052366 3.229155689204047 2.1472982517562174
thorax -6.008130773077212 1.476242671636245 -2.136875545217255
lowerneck -16.57983808091366 -3.4648579671409445 -1.7381932109467242
upperneck 20.18178651611275 -4.70489943808088 1.3969989440094677
head 9.037325939379462 -2.1028383540720808 0.3054787484762378
lclavicle 2.9890415738089554e-16 5.522241089484246e-17
lhumerus -33.60354514214053 4.604807862629646 79.59725374268356
lradius 33.39621047890548
lwrist 11.797732438940171
lhand -29.83126136698459 17.04987408391032
lfingers 7.125020000000001
lthumb -2.9292541427501213 47.24290196381497
rclavicle 3.038398523778723e-16 5.818973953698782e-17
rhumerus -30.6896780134894 -17.4417041145674 -78.46628637690144
rradius 28.05580876012566
rwrist 2.3721796577753933
rhand -17.75456399019586 21.23182281795079
rfingers 7.125020000000001
rthumb 8.450772749129625 -8.542543872970555
90
root 0.5754601057990666 17.600659787250606 24.161775959753466 -2.2964229825697675 -2.601205334703043 -6.438004180451284
lfemur -18.25004959888097 -2.809457110659019 -12.487293746353764
ltibia 29.49437076663522
lfoot -6.117351593693313 -3.507458378670274
ltoes -19.125034861959954
rfemur -0.20674964307812438 3.9404753688594507 33.684357470709955
rtibia 28.941822763877852
rfoot -3.1381254626315433 -8.127598919765916
rtoes 5.54079285410834
lowerback 10.893441780034525 1.781886059216467 5.02379791221918
upperback -0.11515111806453379 3.3216744886711895 2.0599281091185113
thorax -5.902051222928129 1.5301896922885028 -2.178402475560299
lowerneck -16.625488589815223 -3.4563095276535645 -1.6880515402200411
upperneck 20.048945155691943 -4.681556280399573 1.3116158193128993
head 9.012719417566025 -2.0975916340534706 0.2637570163269791
lclavicle 2.988460420789377e-16 5.519146203797371e-17
lhumerus -33.70052381538422 4.853650398670166 79.43537946046132
lradius 33.161737305350215
lwrist 11.970587710346415
lhand -29.865956540526334 17.122787068582294
lfingers 7.125020000000001
lthumb -3.002021487328238 47.27247171286515
rclavicle 3.0259137419877345e-16 5.732905049788431e-17
rhumerus -30.141299754758492 -16.889319296394365 -78.72669368135007
rradius 28.99092493795486
rwrist 1.5323856296605824
rhand -18.04691700005473 21.692201248414435
rfingers 7.125020000000001
rthumb 8.196916538137408 -8.107117716217143
91
root 0.7132672936270233 17.59099682754323 24.15379078380426 -2.0133168098046785 -2.2797143380611398 -5.8114257315809725
lfemur -18.282866212279405 -2.5535874809355534 -13.450013865717724
ltibia 29.54374633217499
lfoot -6.305756363411947 -4.556140190310353
ltoes -20.653901644272423
rfemur 0.23932949293012307 3.100501836826819 32.50238311198167
rtibia 30.8830249675098
rfoot -1.8098092230113751 -8.235305928623852
rtoes 5.124344082030259
lowerback 10.247128025256487 1.7797265438623886 4.7952474092825845
upperback -0.15284070346334366 3.312963993564516 1.94952532351584
thorax -5.876076498177525 1.5458970171433841 -2.0773758773997066
lowerneck -16.627664326079906 -3.440565323288894 -1.632463207588779
upperneck 19.966709008842194 -4.651993924807091 1.2297804163474955
head 8.999131871690855 -2.092994256137646 0.22223466455177776
lclavicle 2.9881366089305567e-16 5.517923205406209e-17
lhumerus -33.792035476212995 5.069340507064242 79.27996067018805
lradius 32.96067495725742
lwrist 11.952499913663289
lhand -29.797135641025104 17.457706962193075
lfingers 7.125020000000001
lthumb -2.9654045751734426 47.57074580824959
rclavicle 3.019587907568479e-16 5.693277528633959e-17
rhumerus -29.74857248333781 -16.618815991183588 -78.87363085332265
rradius 29.743314762110774
rwrist 0.9599517548405103
rhand -18.31152051618663 22.417460331723326
rfingers 7.125020000000001
rthumb 7.971535552413825 -7.396778911052581
